<svg xmlns="http://www.w3.org/2000/svg" viewBox="0 0 526.04 80.31"><defs><style>.a{fill:#fff;}.b{fill:#ed1c24;}</style></defs><path class="a" d="M184.71,44.78c-.72-5.59-6.06-6.19-10.75-6.19s-7.93,2.17-7.93,5c0,2.28,1.93,3.54,4.93,4l14.59,2.35c7.81,1.26,13.76,4.2,13.76,12,0,8-5.41,14.41-22.28,14.41-10.46,0-24-1.32-24.15-14.71H166c.12,5.89,6,6.91,11.06,6.91,5.46,0,9.19-1.63,9.19-5.35,0-3.3-2.65-4.2-7.27-4.92l-10.63-1.63c-7.45-1.14-14.66-3.36-14.66-12.13,0-9.55,7.81-13.45,21.26-13.45,8.83,0,21.93,1.5,22.71,13.63Z"/><path class="a" d="M204.66,32.35h11.65V48.44h24.15V32.35h11.65V75.19H240.46V56.61H216.31V75.19H204.66Z"/><path class="a" d="M284.55,31.19c23.07,0,26.71,13.65,26.71,22.6s-3.6,22.64-26.67,22.64-26.67-13.69-26.67-22.64S261.49,31.19,284.55,31.19Zm0,37.12c10.58,0,14.3-7.81,14.3-14.48s-3.72-14.48-14.3-14.48-14.29,7.77-14.29,14.44S274,68.27,284.55,68.27Z"/><path class="a" d="M317,32.35h28.83c12.2,0,15.14,7.27,15.14,13,0,9.13-4.8,14.54-14.23,14.54H328.65v15.3H317Zm11.66,19.76h12.49c3.6,0,7.81-.12,7.81-5.89,0-5.58-3.43-6.06-6.73-6.06H328.65Z"/><path class="a" d="M396.05,44.78c-.73-5.59-6.07-6.19-10.79-6.19s-7.92,2.17-7.92,5c0,2.28,1.92,3.54,4.92,4l14.6,2.35c7.8,1.26,13.75,4.2,13.75,12,0,8-5.4,14.41-22.28,14.41-10.45,0-24-1.32-24.15-14.71h13.08c.13,5.89,6,6.91,11.06,6.91,5.46,0,9.19-1.63,9.19-5.35,0-3.3-2.65-4.2-7.27-4.92l-10.63-1.63C372.16,55.51,365,53.29,365,44.52c0-9.47,7.85-13.33,21.31-13.33,8.82,0,21.92,1.5,22.7,13.63Z"/><path class="b" d="M47.45,36.27V32.35H35.8V48.44H11.65V32.35H0V75.19H11.65V56.61H35.8V75.19H47.45V66C44.26,59.52,42.53,49.77,47.45,36.27Z"/><path class="b" d="M108.19,32.35v1.74c.64,1.19,1.16,2.27,1.52,3.12l.05.12v.12c.35,1,.66,2.07.94,3.07h13.36V75.19h11.7V40.52h15.91V32.35Z"/><path class="b" d="M106.75,38c-1.8-4.26-6.21-11.33-11.16-14.47,7.2,6.36,7,15.52,1.91,23.15C98.91,29.93,76,14.83,94.24,0,50.39,4.13,63.84,55,57.13,23.3,14.94,92.32,127.51,100.44,106.75,38Zm-29,29.76c-10.37,0-14-7.66-14-14.2s3.65-14.2,14-14.2,14,7.66,14,14.2-3.63,14.2-14,14.2Z"/><path class="a" d="M417.26,65h11.65V75.19H417.26Z"/><path class="a" d="M438.26,32.35h28.83c12.2,0,15.14,7.27,15.14,13,0,9.13-4.81,14.54-14.24,14.54H449.91v15.3H438.26Zm11.65,19.76h12.5c3.6,0,7.81-.12,7.81-5.89,0-5.58-3.43-6.06-6.73-6.06H449.91Z"/><path class="a" d="M488.26,32.35h11.65V66.7H526v8.49H488.26Z"/></svg>